<svg id="Layer_2" data-name="Layer 2" xmlns="http://www.w3.org/2000/svg" viewBox="0 0 100 100"><defs><style>.cls-1{fill:#1c1c1c;}</style></defs><title>cta-text</title><g id="cta-text"><path class="cls-1" d="M24.75,24.55,26.41,23l.62.64-2.35,2.28-3.84-4,.69-.68Z"/><path class="cls-1" d="M29.6,21.57,26.6,17l2.87-1.86.48.74-2.06,1.34.78,1.19,1.84-1.2.46.71-1.84,1.2.8,1.23L32,19l.48.74Z"/><path class="cls-1" d="M33.32,13.06l3.91-1.52.32.83-1.5.58,1.68,4.31-.9.35-1.68-4.3-1.5.58Z"/><path class="cls-1" d="M43.22,10a1.65,1.65,0,0,1,2.1,1.28l-1,.16a.79.79,0,0,0-1-.59c-.58.1-.92.44-.84.9s.31.56.78.59l.89,0c1,0,1.49.45,1.63,1.26.17,1-.51,1.79-1.71,2a1.7,1.7,0,0,1-2.2-1.26l1-.16c.08.46.5.67,1.11.57s1-.45.91-.9-.28-.55-.74-.57l-.9-.05A1.56,1.56,0,0,1,41.56,12,1.73,1.73,0,0,1,43.22,10Z"/><path class="cls-1" d="M53,9.59l4.16.52L57,11l-1.6-.2-.57,4.59-1-.12.57-4.58-1.6-.2Z"/><path class="cls-1" d="M58.7,16.05l3.63-4.61.94.32.15,5.86-1-.33,0-1.34-2-.65-.83,1.06ZM61,14.61l1.41.47,0-1.88c0-.16,0-.33,0-.44-.06.09-.15.23-.25.36Z"/><path class="cls-1" d="M67.78,18.87l2,1.17-.46.77-2.82-1.67,2.8-4.75.83.49Z"/><path class="cls-1" d="M74.59,21.58l3.6-.63.84.76-2.94.51-.76,3.58-.82-.75.57-2.65-1.46.24-.8.87-.71-.65,3.71-4.07.72.65Z"/><path class="cls-1" d="M40.59,84.59,38.37,84l.24-.85,3.15.89L40.25,89.3,39.32,89Z"/><path class="cls-1" d="M35.58,81.88l-2.5,4.91-3-1.55.4-.8,2.19,1.12.64-1.26-2-1,.39-.76,2,1,.66-1.31-2.18-1.11.4-.79Z"/><path class="cls-1" d="M26.35,82.91l-3.27-2.62.55-.69,1.26,1L27.78,77l.75.6-2.88,3.61,1.26,1Z"/><path class="cls-1" d="M18.76,75.88a1.65,1.65,0,0,1,0-2.46l.62.74a.79.79,0,0,0,0,1.18c.38.46.84.57,1.2.28a.71.71,0,0,0,.12-1l-.41-.79a1.47,1.47,0,0,1,.27-2,1.76,1.76,0,0,1,2.58.47,1.72,1.72,0,0,1,0,2.55l-.61-.74c.35-.31.33-.78-.07-1.25s-.88-.63-1.23-.34a.65.65,0,0,0-.12.93l.4.8a1.57,1.57,0,0,1-.3,2.11A1.74,1.74,0,0,1,18.76,75.88Z"/><path class="cls-1" d="M13.52,67.63l-1.63-3.86.82-.35.63,1.49,4.25-1.8L18,64l-4.26,1.8.63,1.48Z"/><path class="cls-1" d="M16.25,59.44l-5.8-.84-.2-1,5-3.06.2,1-1.16.69.42,2,1.33.18Zm-2.4-1.28-.3-1.46-1.62,1a2.3,2.3,0,0,1-.39.19l.44,0Z"/><path class="cls-1" d="M14.15,50.17l0-2.31h.89l0,3.27-5.51,0v-1Z"/><path class="cls-1" d="M13.09,42.92l-2.35-2.81L11,39l1.91,2.29,3.48-1.13-.24,1.09-2.58.83.94,1.14,1.15.26-.21.94-5.38-1.18.21-.94Z"/><path class="cls-1" d="M84.66,40.86l.56,2.24-.86.21-.8-3.17,5.35-1.35.23.94Z"/><path class="cls-1" d="M84.82,46.55l5.51-.3.19,3.42-.89,0-.14-2.46-1.41.08.12,2.2-.85.05-.12-2.2-1.47.08.14,2.45L85,50Z"/><path class="cls-1" d="M90.33,54l-.63,4.15L88.82,58l.24-1.59-4.57-.69.15-1,4.56.7.25-1.6Z"/><path class="cls-1" d="M88,64.13a1.65,1.65,0,0,1-2.16,1.17l.34-.9a.8.8,0,0,0,1-.59c.21-.55.08-1-.35-1.17s-.65,0-.91.37l-.48.75a1.48,1.48,0,0,1-1.9.79,1.77,1.77,0,0,1-.88-2.48,1.72,1.72,0,0,1,2.2-1.28l-.34.91c-.44-.16-.83.1-1,.67s-.1,1.08.33,1.24.62,0,.86-.36l.49-.75a1.56,1.56,0,0,1,2-.78A1.73,1.73,0,0,1,88,64.13Z"/><path class="cls-1" d="M83.51,72.78,81,76.12l-.71-.54,1-1.28-3.68-2.79.58-.77,3.68,2.79,1-1.29Z"/><path class="cls-1" d="M75.06,74.51,77.23,80l-.74.65-5.15-2.8.76-.67,1.18.65,1.54-1.36-.52-1.25Zm.08,2.72-1.11,1,1.65.91a2.15,2.15,0,0,1,.37.24c0-.1-.13-.25-.19-.4Z"/><path class="cls-1" d="M68.07,81l-2,1.14-.43-.78,2.85-1.61,2.71,4.8-.84.48Z"/><path class="cls-1" d="M62.32,85.5l-1.25,3.44L60,89.28l1-2.79L58.29,84l1.07-.34,2,1.82.51-1.39L61.53,83l.92-.29L64.11,88l-.92.29Z"/></g></svg>