<svg width="40" height="40" viewBox="0 0 40 40" fill="none" xmlns="http://www.w3.org/2000/svg">
<path d="M19.6167 18.7333H16.5933V13.67H20.18C22.13 13.67 23.2367 14.54 23.2367 16.1133C23.2367 17.7933 21.9483 18.7333 19.6133 18.7333H19.6167ZM20.1567 20.7433H16.595V26.3233H20.3133C22.745 26.3233 24.0333 25.3483 24.0333 23.515C24.0333 21.6817 22.7083 20.7433 20.1567 20.7433ZM40 18.9833V21.0133C38.12 21.1933 36.9717 22.5867 36.29 24.7933C35.6117 26.9917 35.5183 29.6883 35.59 31.77C35.665 33.9367 33.9767 35.9367 31.695 35.9367H8.30833C6.025 35.9367 4.33667 33.9367 4.41333 31.77C4.485 29.6883 4.39167 26.9917 3.71333 24.7933C3.03 22.5867 1.88 21.1933 0 21.0133V18.9833C1.88 18.8033 3.03167 17.41 3.71167 15.2033C4.39167 13.005 4.485 10.3083 4.41167 8.22666C4.33667 6.06 6.025 4.06 8.30833 4.06H31.695C33.9783 4.06 35.665 6.06 35.59 8.22666C35.5183 10.3083 35.6117 13.005 36.29 15.2033C36.9717 17.41 38.12 18.8033 40 18.9833ZM26.7883 23.6783C26.7883 21.4217 25.2 19.79 22.8417 19.5317V19.4367C24.575 19.155 25.935 17.545 25.935 15.7483C25.935 13.1867 23.9133 11.5183 20.8317 11.5183H13.8983V28.4717H20.8667C24.5633 28.4717 26.7883 26.6617 26.7883 23.6783Z" fill="#F8F8F8"/>
</svg>
