<svg width="79" height="40" viewBox="0 0 79 40" fill="none" xmlns="http://www.w3.org/2000/svg">
<path d="M39.4794 40C61.2833 40 78.9588 31.0457 78.9588 20C78.9588 8.95431 61.2833 0 39.4794 0C17.6755 0 0 8.95431 0 20C0 31.0457 17.6755 40 39.4794 40Z" fill="#F5F3EF"/>
<path d="M47.4731 26.4637L49.4349 16.3892C49.8807 14.1158 49.5091 12.422 48.3353 11.3519C47.2057 10.3119 45.2893 9.80654 42.4659 9.80654H39.0788L40.0441 4.81405C40.0742 4.62087 40.03 4.4277 39.911 4.27928C39.792 4.13086 39.6142 4.04135 39.4204 4.04135H34.7401C34.4279 4.04135 34.1753 4.26455 34.1158 4.56139L32.0356 15.2596C31.8425 14.0558 31.3819 13.0157 30.6392 12.1688C29.2723 10.594 27.0879 9.80654 24.1903 9.80654H15.1117C14.7996 9.80654 14.5469 10.0297 14.4874 10.3266L10.2676 31.9756C10.2382 32.1694 10.2823 32.3626 10.4013 32.511C10.5203 32.6594 10.6981 32.7489 10.8919 32.7489H15.617C15.9291 32.7489 16.1818 32.5251 16.2413 32.2289L17.2666 26.9831H20.7732C22.6154 26.9831 24.1608 26.79 25.3794 26.3889C26.6126 25.9873 27.7564 25.3041 28.7522 24.3682C29.5691 23.625 30.2382 22.7934 30.7435 21.887L29.8966 26.211C29.8665 26.4036 29.9113 26.5974 30.0303 26.7452C30.1492 26.8942 30.3277 26.9831 30.5208 26.9831H35.2012C35.5133 26.9831 35.766 26.7599 35.8255 26.4631L38.1288 14.5764H41.3386C42.7049 14.5764 43.1066 14.8438 43.2108 14.9628C43.3151 15.067 43.523 15.4533 43.285 16.6271L41.457 26.2257C41.4269 26.4195 41.4717 26.6121 41.5907 26.7605C41.7096 26.9089 41.8875 26.9984 42.0807 26.9984H46.8358C47.1468 26.9837 47.4136 26.7758 47.4731 26.4637ZM25.7793 18.1425C25.4825 19.6578 24.9324 20.7274 24.1297 21.3516C23.3128 21.9759 22.0195 22.2875 20.2668 22.2875H18.1713L19.6872 14.5016H22.3911C24.3823 14.5016 25.1845 14.9327 25.4966 15.2891C25.943 15.7802 26.0472 16.7608 25.7793 18.1425Z" fill="#1C1C1C"/>
<path d="M67.488 12.1694C66.121 10.5945 63.9366 9.8071 61.039 9.8071H51.961C51.6488 9.8071 51.3962 10.0303 51.3367 10.3271L47.1311 31.9915C47.101 32.1841 47.1464 32.3778 47.2647 32.5257C47.3837 32.6747 47.5622 32.7636 47.7548 32.7636H52.4804C52.7926 32.7636 53.0447 32.541 53.1047 32.2436L54.1301 26.9984H57.6367C59.4789 26.9984 61.0243 26.8053 62.2428 26.4036C63.4766 26.0031 64.6204 25.3193 65.6157 24.3835C66.4479 23.6108 67.1464 22.7492 67.6664 21.8128C68.1864 20.8769 68.5575 19.8368 68.7807 18.722C69.3013 15.9581 68.8702 13.7595 67.488 12.1694ZM62.5997 18.1425C62.3034 19.6578 61.7534 20.7274 60.9512 21.3516C60.1338 21.9759 58.841 22.2875 57.0877 22.2875H54.9928L56.5082 14.5016H59.2126C61.2039 14.5016 62.006 14.9327 62.3176 15.289C62.7781 15.7802 62.8671 16.7608 62.5997 18.1425Z" fill="#1C1C1C"/>
</svg>
