<svg width="68" height="40" viewBox="0 0 68 40" fill="none" xmlns="http://www.w3.org/2000/svg">
<path d="M34.2921 0C25.4033 0 19.8475 4.44453 17.6254 13.3333C20.9587 8.8888 24.8475 7.22214 29.2921 8.33333C31.8278 8.96719 33.6403 10.807 35.6465 12.8432C38.9147 16.1607 42.697 20 50.9587 20C59.8475 20 65.4033 15.5555 67.6254 6.66667C64.2921 11.1112 60.4033 12.7779 55.9587 11.6667C53.4231 11.0328 51.6106 9.19297 49.6043 7.15677C46.3361 3.83932 42.5538 0 34.2921 0ZM17.6254 20C8.73661 20 3.18088 24.4445 0.95874 33.3333C4.29207 28.8888 8.18088 27.2221 12.6254 28.3333C15.1611 28.9672 16.9736 30.807 18.9798 32.8432C22.2481 36.1607 26.0304 40 34.2921 40C43.1809 40 48.7366 35.5555 50.9587 26.6667C47.6254 31.1112 43.7366 32.7779 39.2921 31.6667C36.7564 31.0328 34.9439 29.193 32.9376 27.1568C29.6694 23.8393 25.8871 20 17.6254 20Z" fill="#F5F3EF"/>
</svg>
