<svg width="40" height="40" viewBox="0 0 40 40" fill="none" xmlns="http://www.w3.org/2000/svg">
<g clip-path="url(#clip0_25_99)">
<path d="M17.55 17.8833C17.3833 17.3667 17.2333 16.8667 17.0667 16.35C16.9 15.8333 16.75 15.35 16.6167 14.8667C16.4833 14.4 16.3667 13.9667 16.25 13.5667H16.2167C16.0667 14.2833 15.8833 15 15.65 15.7167C15.4 16.5167 15.15 17.35 14.8833 18.1833C14.65 19.0333 14.4 19.8167 14.15 20.5167H18.3833C18.2833 20.165 18.15 19.75 18 19.315C17.85 18.8667 17.7 18.3833 17.55 17.8833ZM32.9167 0.5H7.08333C3.16667 0.5 0 3.66667 0 7.58333V32.4167C0 36.3333 3.16667 39.5 7.08333 39.5H32.9167C36.8333 39.5 40 36.3333 40 32.4167V7.58333C40 3.66667 36.8333 0.5 32.9167 0.5ZM24.5 28.05H21.015C20.9 28.0667 20.7833 27.9833 20.75 27.8667L19.3833 23.9H13.1833L11.9167 27.8167C11.8833 27.9667 11.75 28.0667 11.6 28.0517H8.46667C8.28333 28.0517 8.23333 27.95 8.28333 27.7517L13.65 12.3C13.7 12.1333 13.75 11.95 13.8167 11.75C13.8833 11.4 13.9167 11.0333 13.9167 10.6667C13.9 10.5833 13.9667 10.5 14.05 10.4833H18.3667C18.5 10.4833 18.5667 10.5333 18.5833 10.6167L24.6667 27.7833C24.7167 27.965 24.6667 28.05 24.5 28.05ZM30.1667 27.8C30.1667 27.9833 30.1017 28.0667 29.9517 28.0667H26.6833C26.5167 28.0667 26.4333 27.965 26.4333 27.8V14.9667C26.4333 14.8 26.5017 14.7333 26.6517 14.7333H29.9517C30.1017 14.7333 30.1667 14.8167 30.1667 14.9667V27.8ZM29.8183 12.75C29.4333 13.15 28.8667 13.3667 28.3 13.3333C27.75 13.35 27.2167 13.1333 26.815 12.75C26.4317 12.3333 26.2317 11.7833 26.2483 11.2167C26.2317 10.65 26.4483 10.1167 26.8467 9.73333C27.25 9.35 27.7833 9.15 28.3333 9.15C28.985 9.15 29.4817 9.35 29.85 9.73333C30.2167 10.1333 30.4167 10.6667 30.4 11.2167C30.4167 11.7833 30.2167 12.3333 29.8183 12.75Z" fill="#F8F8F8"/>
</g>
<defs>
<clipPath id="clip0_25_99">
<rect width="40" height="40" fill="white"/>
</clipPath>
</defs>
</svg>
