<svg width="40" height="40" viewBox="0 0 40 40" fill="none" xmlns="http://www.w3.org/2000/svg">
<path d="M0 0H40V40H0V0ZM10.5111 33.4222C11.4 35.3111 13.1556 36.8667 16.1556 36.8667C19.4889 36.8667 21.7778 35.0889 21.7778 31.2V18.3556H18V31.1111C18 33.0222 17.2222 33.5111 16 33.5111C14.7111 33.5111 14.1778 32.6222 13.5778 31.5778L10.5111 33.4222ZM23.8 33.0222C24.9111 35.2 27.1556 36.8667 30.6667 36.8667C34.2222 36.8667 36.8889 35.0222 36.8889 31.6222C36.8889 28.4889 35.0889 27.0889 31.8889 25.7111L30.9556 25.3111C29.3333 24.6222 28.6444 24.1556 28.6444 23.0444C28.6444 22.1333 29.3333 21.4222 30.4444 21.4222C31.5111 21.4222 32.2222 21.8889 32.8667 23.0444L35.7778 21.1111C34.5556 18.9778 32.8222 18.1556 30.4444 18.1556C27.0889 18.1556 24.9333 20.2889 24.9333 23.1111C24.9333 26.1778 26.7333 27.6222 29.4444 28.7778L30.3778 29.1778C32.1111 29.9333 33.1333 30.4 33.1333 31.6889C33.1333 32.7556 32.1333 33.5333 30.5778 33.5333C28.7333 33.5333 27.6667 32.5778 26.8667 31.2444L23.8 33.0222Z" fill="#F5F3EF"/>
</svg>
