<svg width="40" height="40" viewBox="0 0 40 40" fill="none" xmlns="http://www.w3.org/2000/svg">
<g clip-path="url(#clip0_25_100)">
<path d="M16.4167 14.0333C15.8 13.7833 15.1333 13.6833 14.45 13.7C14.0167 13.7 13.6333 13.7 13.3167 13.7167C12.9833 13.7 12.75 13.7167 12.6333 13.7333V19.3333C12.8667 19.35 13.0833 19.3667 13.2833 19.3667H14.1667C14.8167 19.3667 15.4667 19.2667 16.0833 19.0667C16.6167 18.9167 17.0833 18.6 17.45 18.1833C17.8 17.7667 17.9667 17.2 17.9667 16.4667C17.9833 15.95 17.85 15.4333 17.5833 14.9833C17.3 14.55 16.9 14.2167 16.4167 14.0333ZM32.9167 0.5H7.08333C3.16667 0.5 0 3.66667 0 7.58333V32.415C0 36.3317 3.16667 39.4983 7.08333 39.4983H32.9167C36.8333 39.4983 40 36.3317 40 32.415V7.58333C40 3.66667 36.8333 0.5 32.9167 0.5ZM20.5983 19.9167C19.9333 20.85 19 21.55 17.9167 21.95C16.7833 22.3667 15.5333 22.5167 14.1667 22.5167C13.7667 22.5167 13.5 22.5167 13.3333 22.5C13.1667 22.4833 12.9333 22.4833 12.6167 22.4833V27.8317C12.6333 27.9483 12.55 28.05 12.4333 28.0667H9.2C9.06667 28.0667 9 27.9983 9 27.8483V10.7C9 10.5833 9.05 10.5167 9.16667 10.5167C9.45 10.5167 9.71667 10.5167 10.1 10.5C10.5 10.4833 10.9167 10.4833 11.3667 10.4667C11.8167 10.45 12.3 10.45 12.8167 10.4333C13.3333 10.4167 13.8333 10.4167 14.3333 10.4167C15.7 10.4167 16.8333 10.5833 17.7667 10.9333C18.6 11.2167 19.3667 11.6833 20 12.3C20.5333 12.8333 20.95 13.4833 21.2167 14.2C21.465 14.9 21.5983 15.6167 21.5983 16.3667C21.6 17.8 21.2667 18.9833 20.5983 19.9167ZM32.4167 26.4C31.95 27.0667 31.2983 27.5817 30.55 27.885C29.7333 28.2333 28.7333 28.415 27.5317 28.415C26.7667 28.415 26.015 28.35 25.2667 28.2C24.6833 28.0983 24.1 27.9167 23.5667 27.6667C23.45 27.6017 23.365 27.485 23.3817 27.3517V24.4517C23.3817 24.4033 23.4 24.335 23.45 24.3017C23.4983 24.2683 23.55 24.285 23.6 24.3183C24.25 24.7017 24.9333 24.97 25.6667 25.135C26.2983 25.3017 26.965 25.385 27.6333 25.385C28.2667 25.385 28.7167 25.3 29.0167 25.15C29.2833 25.0333 29.4667 24.75 29.4667 24.45C29.4667 24.215 29.3333 24 29.0667 23.7833C28.8 23.5683 28.2517 23.3183 27.435 22.9983C26.585 22.6983 25.8033 22.2983 25.0683 21.8C24.5517 21.4317 24.12 20.95 23.8 20.3833C23.535 19.85 23.4017 19.2667 23.4183 18.6817C23.4183 17.965 23.6183 17.2817 23.9867 16.665C24.4033 15.9983 25.0183 15.465 25.735 15.1317C26.5167 14.7333 27.5 14.55 28.6833 14.55C29.3667 14.55 30.0667 14.6 30.75 14.7C31.25 14.7667 31.7333 14.9 32.1833 15.0833C32.2483 15.1 32.3167 15.1667 32.35 15.2333C32.3667 15.3 32.3833 15.3667 32.3833 15.4333V18.15C32.3833 18.2167 32.35 18.2833 32.3 18.3167C32.15 18.35 32.0667 18.35 32 18.3167C31.5 18.05 30.9667 17.8667 30.4 17.75C29.7833 17.6167 29.1667 17.5333 28.5333 17.5333C28.2 17.5167 27.85 17.5667 27.5317 17.65C27.3167 17.7 27.1317 17.8167 27.015 17.9833C26.9317 18.1167 26.8817 18.2833 26.8817 18.4333C26.8817 18.5833 26.9483 18.7333 27.05 18.8667C27.2 19.05 27.3983 19.2 27.6167 19.3167C27.9983 19.5167 28.4 19.7 28.7983 19.8667C29.7 20.1667 30.5667 20.5833 31.3667 21.0833C31.9167 21.4317 32.3667 21.9 32.6817 22.4667C32.9483 22.9967 33.0817 23.5833 33.065 24.1817C33.0833 24.9667 32.85 25.7483 32.4167 26.4Z" fill="#F8F8F8"/>
</g>
<defs>
<clipPath id="clip0_25_100">
<rect width="40" height="40" fill="white"/>
</clipPath>
</defs>
</svg>
